# xmcd CD database file
#
# Track frame offsets:
#	150
#	12352
#	25035
#	37525
#	51012
#	63322
#	78015
#	90202
#	103772
#	115020
#	127025
#	137975
#
# Disc length: 2029 seconds
#
# Revision: 1
# Processed by: cddbd v1.5.2PL0 Copyright (c) Steve Scherf et al.
# Submitted via: CDex 1.70beta3
#
DISCID=8607eb0c
DTITLE=Jo Stafford - Autumn In New York
DYEAR=1955
DGENRE=Jazz
TTITLE0=Autmn in NewYork
TTITLE1=Smoke Gets In Your Eyes
TTITLE2=Haunted Heart
TTITLE3=If I Loved You
TTITLE4=In The Still Of The Night
TTITLE5=Some Enchanted Evening
TTITLE6=Just One Of Those Things
TTITLE7=Almost Like Being In Love
TTITLE8=Make Believe
TTITLE9=Through The Years
TTITLE10=The Best Things In Life Are Free
TTITLE11=Sometimes I'm Happy
EXTD=YEAR: 1955
EXTT0=
EXTT1=
EXTT2=
EXTT3=
EXTT4=
EXTT5=
EXTT6=
EXTT7=
EXTT8=
EXTT9=
EXTT10=
EXTT11=
PLAYORDER=
